<?xml version="1.0" encoding="utf-8"?>
<!-- Generator: Adobe Illustrator 20.1.0, SVG Export Plug-In . SVG Version: 6.00 Build 0)  -->
<svg version="1.1" id="Слой_1" xmlns="http://www.w3.org/2000/svg" xmlns:xlink="http://www.w3.org/1999/xlink" x="0px" y="0px"
	 viewBox="0 0 16 16" style="enable-background:new 0 0 16 16;" xml:space="preserve">
<style type="text/css">
	.st0{fill:url(#SVGID_1_);}
	.st1{fill:url(#SVGID_2_);}
</style>
<g>
	<linearGradient id="SVGID_1_" gradientUnits="userSpaceOnUse" x1="8" y1="0.3817" x2="8" y2="15.6183">
		<stop  offset="0" style="stop-color:#FFE000"/>
		<stop  offset="0.2131" style="stop-color:#FFDA01"/>
		<stop  offset="0.4987" style="stop-color:#FFC906"/>
		<stop  offset="0.8241" style="stop-color:#FFAD0D"/>
		<stop  offset="1" style="stop-color:#FF9B11"/>
	</linearGradient>
	<polygon class="st0" points="8,0.4 10.5,5.4 16,6.2 11.9,10 13,15.6 8,13.1 3,15.6 3.9,10 0,6.2 5.3,5.4 	"/>
	<linearGradient id="SVGID_2_" gradientUnits="userSpaceOnUse" x1="8" y1="0.3816" x2="8" y2="15.6184">
		<stop  offset="0" style="stop-color:#FFD964"/>
		<stop  offset="1" style="stop-color:#FF8E11"/>
	</linearGradient>
	<path class="st1" d="M8,1.7l2,3.9l0.1,0.3l0.3,0l4.2,0.6l-3.1,2.9l-0.3,0.2l0.1,0.3l0.8,4.3l-3.8-2L8,12.4l-0.3,0.1l-3.9,2l0.7-4.4
		l0-0.3L4.3,9.6l-3-2.9l4-0.6l0.3,0l0.1-0.3L8,1.7 M8,0.4l-2.7,5L0,6.2L3.9,10L3,15.6l5-2.5l5,2.5l-1-5.6L16,6.2l-5.5-0.8L8,0.4
		L8,0.4z"/>
</g>
</svg>
